<svg width="348" height="90" viewBox="0 0 348 90" fill="none" xmlns="http://www.w3.org/2000/svg">
<path d="M32 62L56 56.5V90L32 62Z" fill="#1F879D"/>
<path d="M316 62L292 57V90L316 62Z" fill="#1F879D"/>
<path d="M32 7C32 7 92.5 0 174 0C255.5 0 316 7 316 7V63C316 63 255.5 56 174 56C92.5 56 32 63 32 63V7Z" fill="url(#paint0_linear_1209_985)"/>
<path d="M83.9286 37.0883C81.6673 39.3283 78.9153 40.4483 75.6726 40.4483C72.43 40.4483 69.678 39.3283 67.4166 37.0883C65.1766 34.8057 64.0566 32.043 64.0566 28.8003C64.0566 25.5363 65.1766 22.7843 67.4166 20.5443C69.678 18.283 72.43 17.1523 75.6726 17.1523C78.9153 17.1523 81.6673 18.283 83.9286 20.5443C86.19 22.7843 87.3206 25.5363 87.3206 28.8003C87.3206 32.0643 86.19 34.827 83.9286 37.0883ZM70.5206 34.0803C71.886 35.4457 73.6033 36.1283 75.6726 36.1283C77.742 36.1283 79.4593 35.4457 80.8246 34.0803C82.2113 32.6937 82.9046 30.9337 82.9046 28.8003C82.9046 26.667 82.2113 24.907 80.8246 23.5203C79.438 22.1337 77.7206 21.4403 75.6726 21.4403C73.6246 21.4403 71.9073 22.1337 70.5206 23.5203C69.134 24.907 68.4406 26.667 68.4406 28.8003C68.4406 30.9337 69.134 32.6937 70.5206 34.0803Z" fill="white"/>
<path d="M96.7604 26.0803H100.92C103.118 26.0803 104.899 26.731 106.264 28.0323C107.651 29.3123 108.344 30.9763 108.344 33.0243C108.344 35.0723 107.651 36.7577 106.264 38.0803C104.899 39.3603 103.118 40.0003 100.92 40.0003H92.3444V17.6003H106.424V21.8243H96.7604V26.0803ZM96.7604 35.8723H100.92C101.816 35.8723 102.542 35.6163 103.096 35.1043C103.672 34.5923 103.96 33.899 103.96 33.0243C103.96 32.1497 103.672 31.467 103.096 30.9763C102.542 30.4643 101.816 30.2083 100.92 30.2083H96.7604V35.8723Z" fill="white"/>
<path d="M123.631 40.0003H115.279V21.8243H109.903V17.6003H119.663V24.9603H123.631C125.764 24.9603 127.578 25.6857 129.071 27.1363C130.543 28.587 131.279 30.3683 131.279 32.4803C131.279 34.5923 130.543 36.3737 129.071 37.8243C127.578 39.275 125.764 40.0003 123.631 40.0003ZM119.663 29.0883V35.8723H123.631C124.57 35.8723 125.338 35.5523 125.935 34.9123C126.554 34.2723 126.863 33.4617 126.863 32.4803C126.863 31.499 126.554 30.6883 125.935 30.0483C125.338 29.4083 124.57 29.0883 123.631 29.0883H119.663Z" fill="white"/>
<path d="M142.189 17.6003H151.149V40.0003H146.733V32.2243H144.205L139.053 40.0003H134.093L139.565 31.7443C138.135 31.2323 136.973 30.3577 136.077 29.1203C135.181 27.883 134.733 26.5177 134.733 25.0243C134.733 22.9763 135.458 21.227 136.909 19.7763C138.359 18.3257 140.119 17.6003 142.189 17.6003ZM142.189 28.3523H146.733V21.7283H142.189C141.357 21.7283 140.642 22.0483 140.045 22.6883C139.447 23.3283 139.149 24.107 139.149 25.0243C139.149 25.9417 139.447 26.731 140.045 27.3923C140.642 28.0323 141.357 28.3523 142.189 28.3523Z" fill="white"/>
<path d="M170.765 28.3843C172.728 29.515 173.709 31.2217 173.709 33.5043C173.709 35.403 173.037 36.9603 171.693 38.1763C170.349 39.3923 168.696 40.0003 166.733 40.0003H157.229V17.6003H166.061C167.96 17.6003 169.571 18.1977 170.893 19.3923C172.216 20.587 172.877 22.091 172.877 23.9043C172.877 25.7603 172.173 27.2537 170.765 28.3843ZM166.061 21.7283H161.645V26.6563H166.061C166.744 26.6563 167.309 26.4217 167.757 25.9523C168.227 25.483 168.461 24.8963 168.461 24.1923C168.461 23.4883 168.237 22.9017 167.789 22.4323C167.341 21.963 166.765 21.7283 166.061 21.7283ZM161.645 35.8723H166.733C167.48 35.8723 168.099 35.627 168.589 35.1363C169.08 34.6243 169.325 33.9843 169.325 33.2163C169.325 32.4697 169.08 31.851 168.589 31.3603C168.099 30.8483 167.48 30.5923 166.733 30.5923H161.645V35.8723Z" fill="white"/>
<path d="M176.296 40.0003V35.9043C177.662 36.0963 178.664 35.819 179.304 35.0723C179.944 34.3043 180.264 32.8963 180.264 30.8483V17.6003H195.496V40.0003H191.112V21.8243H184.648V30.7203C184.648 34.5817 183.763 37.195 181.992 38.5603C180.478 39.755 178.579 40.235 176.296 40.0003Z" fill="white"/>
<path d="M205.985 30.7523V35.7763H215.425V40.0003H201.569V17.6003H215.265V21.8243H205.985V26.5923H214.465V30.7523H205.985Z" fill="white"/>
<path d="M233.194 26.4963V17.6003H237.578V40.0003H233.194V30.7203H224.874V40.0003H220.458V17.6003H224.874V26.4963H233.194Z" fill="white"/>
<path d="M261.035 40.0003H256.619V26.3363L247.019 40.0003H243.659V17.6003H248.075V31.2963L257.675 17.6003H261.035V40.0003Z" fill="white"/>
<path d="M273.959 17.6003H282.919V40.0003H278.503V32.2243H275.975L270.823 40.0003H265.863L271.335 31.7443C269.905 31.2323 268.743 30.3577 267.847 29.1203C266.951 27.883 266.503 26.5177 266.503 25.0243C266.503 22.9763 267.228 21.227 268.679 19.7763C270.129 18.3257 271.889 17.6003 273.959 17.6003ZM273.959 28.3523H278.503V21.7283H273.959C273.127 21.7283 272.412 22.0483 271.815 22.6883C271.217 23.3283 270.919 24.107 270.919 25.0243C270.919 25.9417 271.217 26.731 271.815 27.3923C272.412 28.0323 273.127 28.3523 273.959 28.3523Z" fill="white"/>
<defs>
<linearGradient id="paint0_linear_1209_985" x1="32" y1="26" x2="316" y2="26" gradientUnits="userSpaceOnUse">
<stop stop-color="#2DB6D4"/>
<stop offset="0.500182" stop-color="#2DB6D4" stop-opacity="0.75"/>
<stop offset="1" stop-color="#2DB6D4"/>
</linearGradient>
<clipPath id="clip0_1209_985">
<rect width="56" height="66" fill="white" transform="translate(0 24)"/>
</clipPath>
<clipPath id="clip1_1209_985">
<rect width="56" height="66" fill="white" transform="translate(292 24)"/>
</clipPath>
</defs>
</svg>
