<svg xmlns="http://www.w3.org/2000/svg" width="348" height="90" viewBox="0 0 348 90" fill="none">
    <path d="M32 62L56 56.5V90L32 62Z" fill="#A6A6A6" fill-opacity="0.7"/>
    <path d="M316 62L292 57V90L316 62Z" fill="#A6A6A6" fill-opacity="0.7"/>
    <path d="M32 7C32 7 92.5 0 174 0C255.5 0 316 7 316 7V63C316 63 255.5 56 174 56C92.5 56 32 63 32 63V7Z" fill="url(#paint0_linear_1475_1291)"/>
    <path d="M135.437 17.6H140.557V40H135.437V26.976L129.645 36.48H129.069L123.277 26.976V40H118.157V17.6H123.277L129.357 27.552L135.437 17.6Z" fill="white"/>
    <path d="M151.127 31.104V35.072H160.087V40H146.007V17.6H159.927V22.528H151.127V26.24H159.127V31.104H151.127Z" fill="white"/>
    <path d="M182.176 17.6V35.072H184.576V44.288H179.456V40H168.256V44.288H163.136V35.072H165.408C166.582 33.3866 167.168 30.912 167.168 27.648V17.6H182.176ZM170.848 35.072H177.056V22.4H172.288V27.712C172.288 30.8906 171.808 33.344 170.848 35.072Z" fill="white"/>
    <path d="M206.495 40H201.375V27.84L192.735 40H188.895V17.6H194.015V29.76L202.655 17.6H206.495V40Z" fill="white"/>
    <path d="M231.772 40H226.172L225.052 36.48H216.732L215.612 40H210.012L217.628 17.6H224.156L231.772 40ZM220.892 23.456L218.268 31.68H223.516L220.892 23.456Z" fill="white"/>
    <defs>
        <linearGradient id="paint0_linear_1475_1291" x1="32" y1="26" x2="316" y2="26" gradientUnits="userSpaceOnUse">
            <stop stop-color="#A6A6A6"/>
            <stop offset="0.500182" stop-color="#D6D5D5"/>
            <stop offset="1" stop-color="#A6A6A6"/>
        </linearGradient>
    </defs>
</svg>
