<svg width="348" height="90" viewBox="0 0 348 90" fill="none" xmlns="http://www.w3.org/2000/svg">
<path d="M32 62L56 56.5V90L32 62Z" fill="#107B48"/>
<path d="M316 62L292 57V90L316 62Z" fill="#107B48"/>
<path d="M32 7C32 7 92.5 0 174 0C255.5 0 316 7 316 7V63C316 63 255.5 56 174 56C92.5 56 32 63 32 63V7Z" fill="url(#paint0_linear_1099_1310)"/>
<path d="M104.85 40.448C101.501 40.448 98.7169 39.328 96.4982 37.088C94.3009 34.8693 93.2022 32.1067 93.2022 28.8C93.2022 25.472 94.3009 22.7093 96.4982 20.512C98.7169 18.272 101.501 17.152 104.85 17.152C106.877 17.152 108.744 17.632 110.45 18.592C112.178 19.5307 113.522 20.8107 114.482 22.432L110.674 24.64C110.12 23.6373 109.33 22.8587 108.306 22.304C107.282 21.728 106.13 21.44 104.85 21.44C102.674 21.44 100.914 22.1227 99.5702 23.488C98.2476 24.8747 97.5862 26.6453 97.5862 28.8C97.5862 30.9333 98.2476 32.6933 99.5702 34.08C100.914 35.4453 102.674 36.128 104.85 36.128C106.13 36.128 107.282 35.8507 108.306 35.296C109.352 34.72 110.141 33.9413 110.674 32.96L114.482 35.168C113.522 36.7893 112.178 38.08 110.45 39.04C108.744 39.9787 106.877 40.448 104.85 40.448ZM137.744 37.088C135.483 39.328 132.731 40.448 129.488 40.448C126.246 40.448 123.494 39.328 121.232 37.088C118.992 34.8053 117.872 32.0427 117.872 28.8C117.872 25.536 118.992 22.784 121.232 20.544C123.494 18.2827 126.246 17.152 129.488 17.152C132.731 17.152 135.483 18.2827 137.744 20.544C140.006 22.784 141.136 25.536 141.136 28.8C141.136 32.064 140.006 34.8267 137.744 37.088ZM124.336 34.08C125.702 35.4453 127.419 36.128 129.488 36.128C131.558 36.128 133.275 35.4453 134.64 34.08C136.027 32.6933 136.72 30.9333 136.72 28.8C136.72 26.6667 136.027 24.9067 134.64 23.52C133.254 22.1333 131.536 21.44 129.488 21.44C127.44 21.44 125.723 22.1333 124.336 23.52C122.95 24.9067 122.256 26.6667 122.256 28.8C122.256 30.9333 122.95 32.6933 124.336 34.08ZM150.576 26.08H154.736C156.933 26.08 158.715 26.7307 160.08 28.032C161.467 29.312 162.16 30.976 162.16 33.024C162.16 35.072 161.467 36.7573 160.08 38.08C158.715 39.36 156.933 40 154.736 40H146.16V17.6H160.24V21.824H150.576V26.08ZM150.576 35.872H154.736C155.632 35.872 156.357 35.616 156.912 35.104C157.488 34.592 157.776 33.8987 157.776 33.024C157.776 32.1493 157.488 31.4667 156.912 30.976C156.357 30.464 155.632 30.208 154.736 30.208H150.576V35.872ZM175.151 40H166.799V17.6H171.215V24.96H175.151C177.284 24.96 179.097 25.6853 180.591 27.136C182.063 28.5867 182.799 30.368 182.799 32.48C182.799 34.592 182.063 36.3733 180.591 37.824C179.097 39.2747 177.284 40 175.151 40ZM189.231 40H184.847V17.6H189.231V40ZM171.215 29.088V35.872H175.151C176.089 35.872 176.868 35.552 177.487 34.912C178.105 34.272 178.415 33.4613 178.415 32.48C178.415 31.4987 178.105 30.688 177.487 30.048C176.868 29.408 176.089 29.088 175.151 29.088H171.215ZM193.648 17.6H210.128V21.824H204.08V40H199.664V21.824H193.648V17.6ZM231.89 40H227.474V26.336L217.874 40H214.514V17.6H218.93V31.296L228.53 17.6H231.89V40ZM244.813 17.6H253.773V40H249.357V32.224H246.829L241.677 40H236.717L242.189 31.744C240.76 31.232 239.597 30.3573 238.701 29.12C237.805 27.8827 237.357 26.5173 237.357 25.024C237.357 22.976 238.082 21.2267 239.533 19.776C240.984 18.3253 242.744 17.6 244.813 17.6ZM244.813 28.352H249.357V21.728H244.813C243.981 21.728 243.266 22.048 242.669 22.688C242.072 23.328 241.773 24.1067 241.773 25.024C241.773 25.9413 242.072 26.7307 242.669 27.392C243.266 28.032 243.981 28.352 244.813 28.352Z" fill="white"/>
<defs>
<linearGradient id="paint0_linear_1099_1310" x1="32" y1="26" x2="316" y2="26" gradientUnits="userSpaceOnUse">
<stop stop-color="#15AB63"/>
<stop offset="0.500182" stop-color="#15AB63" stop-opacity="0.75"/>
<stop offset="1" stop-color="#15AB63"/>
</linearGradient>
<clipPath id="clip0_1099_1310">
<rect width="56" height="66" fill="white" transform="translate(0 24)"/>
</clipPath>
<clipPath id="clip1_1099_1310">
<rect width="56" height="66" fill="white" transform="translate(292 24)"/>
</clipPath>
</defs>
</svg>
