<svg width="348" height="90" viewBox="0 0 348 90" fill="none" xmlns="http://www.w3.org/2000/svg">
<path d="M32 62L56 56.5V90L32 62Z" fill="#050A78"/>
<path d="M316 62L292 57V90L316 62Z" fill="#050A78"/>
<path d="M32 7C32 7 92.5 0 174 0C255.5 0 316 7 316 7V63C316 63 255.5 56 174 56C92.5 56 32 63 32 63V7Z" fill="url(#paint0_linear_1099_1340)"/>
<path d="M107.04 26.496V17.6H111.424V40H107.04V30.72H98.7204V40H94.3044V17.6H98.7204V26.496H107.04ZM136.354 37.088C134.092 39.328 131.34 40.448 128.098 40.448C124.855 40.448 122.103 39.328 119.842 37.088C117.602 34.8053 116.482 32.0427 116.482 28.8C116.482 25.536 117.602 22.784 119.842 20.544C122.103 18.2827 124.855 17.152 128.098 17.152C131.34 17.152 134.092 18.2827 136.354 20.544C138.615 22.784 139.746 25.536 139.746 28.8C139.746 32.064 138.615 34.8267 136.354 37.088ZM122.946 34.08C124.311 35.4453 126.028 36.128 128.098 36.128C130.167 36.128 131.884 35.4453 133.25 34.08C134.636 32.6933 135.33 30.9333 135.33 28.8C135.33 26.6667 134.636 24.9067 133.25 23.52C131.863 22.1333 130.146 21.44 128.098 21.44C126.05 21.44 124.332 22.1333 122.946 23.52C121.559 24.9067 120.866 26.6667 120.866 28.8C120.866 30.9333 121.559 32.6933 122.946 34.08ZM158.305 28.384C160.268 29.5147 161.249 31.2213 161.249 33.504C161.249 35.4027 160.577 36.96 159.233 38.176C157.889 39.392 156.236 40 154.273 40H144.769V17.6H153.601C155.5 17.6 157.111 18.1973 158.433 19.392C159.756 20.5867 160.417 22.0907 160.417 23.904C160.417 25.76 159.713 27.2533 158.305 28.384ZM153.601 21.728H149.185V26.656H153.601C154.284 26.656 154.849 26.4213 155.297 25.952C155.767 25.4827 156.001 24.896 156.001 24.192C156.001 23.488 155.777 22.9013 155.329 22.432C154.881 21.9627 154.305 21.728 153.601 21.728ZM149.185 35.872H154.273C155.02 35.872 155.639 35.6267 156.129 35.136C156.62 34.624 156.865 33.984 156.865 33.216C156.865 32.4693 156.62 31.8507 156.129 31.36C155.639 30.848 155.02 30.592 154.273 30.592H149.185V35.872ZM184.912 37.088C182.651 39.328 179.899 40.448 176.656 40.448C173.414 40.448 170.662 39.328 168.4 37.088C166.16 34.8053 165.04 32.0427 165.04 28.8C165.04 25.536 166.16 22.784 168.4 20.544C170.662 18.2827 173.414 17.152 176.656 17.152C179.899 17.152 182.651 18.2827 184.912 20.544C187.174 22.784 188.304 25.536 188.304 28.8C188.304 32.064 187.174 34.8267 184.912 37.088ZM171.504 34.08C172.87 35.4453 174.587 36.128 176.656 36.128C178.726 36.128 180.443 35.4453 181.808 34.08C183.195 32.6933 183.888 30.9333 183.888 28.8C183.888 26.6667 183.195 24.9067 181.808 23.52C180.422 22.1333 178.704 21.44 176.656 21.44C174.608 21.44 172.891 22.1333 171.504 23.52C170.118 24.9067 169.424 26.6667 169.424 28.8C169.424 30.9333 170.118 32.6933 171.504 34.08ZM203.952 40.448C200.603 40.448 197.819 39.328 195.6 37.088C193.403 34.8693 192.304 32.1067 192.304 28.8C192.304 25.472 193.403 22.7093 195.6 20.512C197.819 18.272 200.603 17.152 203.952 17.152C205.979 17.152 207.845 17.632 209.552 18.592C211.28 19.5307 212.624 20.8107 213.584 22.432L209.776 24.64C209.221 23.6373 208.432 22.8587 207.408 22.304C206.384 21.728 205.232 21.44 203.952 21.44C201.776 21.44 200.016 22.1227 198.672 23.488C197.349 24.8747 196.688 26.6453 196.688 28.8C196.688 30.9333 197.349 32.6933 198.672 34.08C200.016 35.4453 201.776 36.128 203.952 36.128C205.232 36.128 206.384 35.8507 207.408 35.296C208.453 34.72 209.243 33.9413 209.776 32.96L213.584 35.168C212.624 36.7893 211.28 38.08 209.552 39.04C207.845 39.9787 205.979 40.448 203.952 40.448ZM216.459 17.6H232.939V21.824H226.891V40H222.475V21.824H216.459V17.6ZM254.7 40H250.284V26.336L240.684 40H237.324V17.6H241.74V31.296L251.34 17.6H254.7V40Z" fill="white"/>
<defs>
<linearGradient id="paint0_linear_1099_1340" x1="32" y1="26" x2="316" y2="26" gradientUnits="userSpaceOnUse">
<stop stop-color="#040A95"/>
<stop offset="0.500182" stop-color="#040A95" stop-opacity="0.75"/>
<stop offset="1" stop-color="#040A95"/>
</linearGradient>
<clipPath id="clip0_1099_1340">
<rect width="56" height="66" fill="white" transform="translate(0 24)"/>
</clipPath>
<clipPath id="clip1_1099_1340">
<rect width="56" height="66" fill="white" transform="translate(292 24)"/>
</clipPath>
</defs>
</svg>
