<svg width="348" height="90" viewBox="0 0 348 90" fill="none" xmlns="http://www.w3.org/2000/svg">
<path d="M32 62L56 56.5V90L32 62Z" fill="#962313"/>
<path d="M316 62L292 57V90L316 62Z" fill="#962313"/>
<path d="M32 7C32 7 92.5 0 174 0C255.5 0 316 7 316 7V63C316 63 255.5 56 174 56C92.5 56 32 63 32 63V7Z" fill="url(#paint0_linear_1099_1237)"/>
<path d="M140.571 37.888V40.48H136.251V37.888C133.115 37.568 130.63 36.6187 128.795 35.04C126.961 33.44 126.043 31.36 126.043 28.8C126.043 26.24 126.961 24.1707 128.795 22.592C130.609 20.992 133.094 20.032 136.251 19.712V17.12H140.571V19.712C143.665 19.9893 146.15 20.9387 148.028 22.56C149.884 24.16 150.812 26.24 150.812 28.8C150.812 31.36 149.884 33.44 148.028 35.04C146.15 36.6613 143.665 37.6107 140.571 37.888ZM140.571 23.712V33.856C144.454 33.408 146.396 31.7227 146.396 28.8C146.396 25.856 144.454 24.16 140.571 23.712ZM130.427 28.8C130.427 31.7227 132.369 33.3973 136.251 33.824V23.744C132.369 24.1707 130.427 25.856 130.427 28.8ZM174.374 37.088C172.113 39.328 169.361 40.448 166.118 40.448C162.876 40.448 160.124 39.328 157.862 37.088C155.622 34.8053 154.502 32.0427 154.502 28.8C154.502 25.536 155.622 22.784 157.862 20.544C160.124 18.2827 162.876 17.152 166.118 17.152C169.361 17.152 172.113 18.2827 174.374 20.544C176.636 22.784 177.766 25.536 177.766 28.8C177.766 32.064 176.636 34.8267 174.374 37.088ZM160.966 34.08C162.332 35.4453 164.049 36.128 166.118 36.128C168.188 36.128 169.905 35.4453 171.27 34.08C172.657 32.6933 173.35 30.9333 173.35 28.8C173.35 26.6667 172.657 24.9067 171.27 23.52C169.884 22.1333 168.166 21.44 166.118 21.44C164.07 21.44 162.353 22.1333 160.966 23.52C159.58 24.9067 158.886 26.6667 158.886 28.8C158.886 30.9333 159.58 32.6933 160.966 34.08ZM179.845 17.6H196.325V21.824H190.277V40H185.861V21.824H179.845V17.6ZM218.277 37.088C216.015 39.328 213.263 40.448 210.021 40.448C206.778 40.448 204.026 39.328 201.765 37.088C199.525 34.8053 198.405 32.0427 198.405 28.8C198.405 25.536 199.525 22.784 201.765 20.544C204.026 18.2827 206.778 17.152 210.021 17.152C213.263 17.152 216.015 18.2827 218.277 20.544C220.538 22.784 221.669 25.536 221.669 28.8C221.669 32.064 220.538 34.8267 218.277 37.088ZM204.869 34.08C206.234 35.4453 207.951 36.128 210.021 36.128C212.09 36.128 213.807 35.4453 215.173 34.08C216.559 32.6933 217.253 30.9333 217.253 28.8C217.253 26.6667 216.559 24.9067 215.173 23.52C213.786 22.1333 212.069 21.44 210.021 21.44C207.973 21.44 206.255 22.1333 204.869 23.52C203.482 24.9067 202.789 26.6667 202.789 28.8C202.789 30.9333 203.482 32.6933 204.869 34.08Z" fill="white"/>
<defs>
<linearGradient id="paint0_linear_1099_1237" x1="32" y1="26" x2="316" y2="26" gradientUnits="userSpaceOnUse">
<stop stop-color="#DD3C26"/>
<stop offset="0.500182" stop-color="#FF1F00" stop-opacity="0.75"/>
<stop offset="1" stop-color="#DD3C26"/>
</linearGradient>
<clipPath id="clip0_1099_1237">
<rect width="32" height="66" fill="white" transform="translate(0 24)"/>
</clipPath>
<clipPath id="clip1_1099_1237">
<rect width="56" height="66" fill="white" transform="translate(292 24)"/>
</clipPath>
</defs>
</svg>
