<svg width="348" height="90" viewBox="0 0 348 90" fill="none" xmlns="http://www.w3.org/2000/svg">
<path d="M32 62L56 56.5V90L32 62Z" fill="#821554"/>
<path d="M316 62L292 57V90L316 62Z" fill="#821554"/>
<path d="M32 7C32 7 92.5 0 174 0C255.5 0 316 7 316 7V63C316 63 255.5 56 174 56C92.5 56 32 63 32 63V7Z" fill="url(#paint0_linear_1209_975)"/>
<path d="M91.4297 17.5996H107.91V21.8236H101.862V39.9996H97.4457V21.8236H91.4297V17.5996Z" fill="white"/>
<path d="M116.711 30.7516V35.7756H126.151V39.9996H112.295V17.5996H125.991V21.8236H116.711V26.5916H125.191V30.7516H116.711Z" fill="white"/>
<path d="M148.56 17.5996H153.104V39.9996H148.72V25.4716L142.416 35.8716H141.904L135.6 25.5036V39.9996H131.184V17.5996H135.728L142.16 28.1916L148.56 17.5996Z" fill="white"/>
<path d="M178.397 39.9996H173.597L172.253 35.9676H163.325L161.981 39.9996H157.213L165.053 17.5996H170.525L178.397 39.9996ZM167.805 22.6876L164.733 31.8396H170.877L167.805 22.6876Z" fill="white"/>
<path d="M209.628 17.5996V35.7756H212.028V44.2876H207.612V39.9996H195.228V44.2876H190.812V35.7756H192.988C194.226 34.0689 194.844 31.5409 194.844 28.1916V17.5996H209.628ZM197.724 35.7756H205.212V21.7276H199.26V28.2556C199.26 31.5196 198.748 34.0263 197.724 35.7756Z" fill="white"/>
<path d="M229.631 26.4956V17.5996H234.015V39.9996H229.631V30.7196H221.311V39.9996H216.895V17.5996H221.311V26.4956H229.631Z" fill="white"/>
<path d="M246.944 17.5996H255.904V39.9996H251.488V32.2236H248.96L243.808 39.9996H238.848L244.32 31.7436C242.891 31.2316 241.728 30.3569 240.832 29.1196C239.936 27.8823 239.488 26.5169 239.488 25.0236C239.488 22.9756 240.214 21.2263 241.664 19.7756C243.115 18.3249 244.875 17.5996 246.944 17.5996ZM246.944 28.3516H251.488V21.7276H246.944C246.112 21.7276 245.398 22.0476 244.8 22.6876C244.203 23.3276 243.904 24.1063 243.904 25.0236C243.904 25.9409 244.203 26.7303 244.8 27.3916C245.398 28.0316 246.112 28.3516 246.944 28.3516Z" fill="white"/>
<defs>
<linearGradient id="paint0_linear_1209_975" x1="32" y1="26" x2="316" y2="26" gradientUnits="userSpaceOnUse">
<stop stop-color="#9F1F69"/>
<stop offset="0.500182" stop-color="#9F1F69" stop-opacity="0.75"/>
<stop offset="1" stop-color="#9F1F69"/>
</linearGradient>
<clipPath id="clip0_1209_975">
<rect width="56" height="66" fill="white" transform="translate(0 24)"/>
</clipPath>
<clipPath id="clip1_1209_975">
<rect width="56" height="66" fill="white" transform="translate(292 24)"/>
</clipPath>
</defs>
</svg>
