<svg width="48" height="48" viewBox="0 0 48 48" fill="none" xmlns="http://www.w3.org/2000/svg">
<path d="M24.0039 8.625C13.2366 8.625 4.50095 14.9382 4.50095 22.7296C4.50095 26.0727 6.10587 29.1377 8.78752 31.5586C8.19837 33.1385 7.29095 33.776 6.27517 34.4812C5.5235 35.0033 4.09464 35.8171 4.6093 37.4106C4.95466 38.4549 6.02461 39.0855 7.18937 38.9906C11.0967 38.6787 14.7197 37.6886 17.8212 36.1086C19.7647 36.5765 21.8436 36.8342 23.9971 36.8342C34.7711 36.8342 43.5 30.5278 43.5 22.7296C43.5068 14.9382 34.7779 8.625 24.0039 8.625ZM24.0039 33.5793C21.803 33.5793 19.5751 33.2809 17.4149 32.63C15.2275 33.9184 12.0854 35.7492 8.29318 36.2917C10.4602 34.6643 12.1396 32.1146 12.4375 30.2973C9.85748 28.5342 7.75143 25.8964 7.75143 22.7296C7.75143 17.9218 13.5955 11.8799 24.0039 11.8799C34.4122 11.8799 40.2563 17.9218 40.2563 22.7296C40.2563 27.5442 34.4122 33.5793 24.0039 33.5793ZM19.6699 22.7296C19.6699 24.5266 18.2139 25.9845 16.4194 25.9845C14.6249 25.9845 13.1689 24.5266 13.1689 22.7296C13.1689 20.9326 14.6249 19.4747 16.4194 19.4747C18.2139 19.4747 19.6699 20.9326 19.6699 22.7296ZM27.2543 22.7296C27.2543 24.5266 25.7984 25.9845 24.0039 25.9845C22.2093 25.9845 20.7534 24.5266 20.7534 22.7296C20.7534 20.9326 22.2093 19.4747 24.0039 19.4747C25.7984 19.4747 27.2543 20.9326 27.2543 22.7296ZM34.8388 22.7296C34.8388 24.5266 33.3829 25.9845 31.5883 25.9845C29.7938 25.9845 28.3378 24.5266 28.3378 22.7296C28.3378 20.9326 29.7938 19.4747 31.5883 19.4747C33.3829 19.4747 34.8388 20.9326 34.8388 22.7296Z" fill="white"/>
</svg>
