<svg width="48" height="48" viewBox="0 0 48 48" fill="none" xmlns="http://www.w3.org/2000/svg">
<path d="M31.9728 22.9763L20.13 15.7765C19.0669 15.1843 17.7278 15.9447 17.7278 17.1895V31.1855C17.7278 32.4236 19.0601 33.1907 20.13 32.5985L31.9728 25.8024C33.0763 25.1901 33.0763 23.5954 31.9728 22.9763ZM40.875 24.1875C40.875 14.969 33.406 7.5 24.1875 7.5C14.969 7.5 7.5 14.969 7.5 24.1875C7.5 33.406 14.969 40.875 24.1875 40.875C33.406 40.875 40.875 33.406 40.875 24.1875ZM10.7298 24.1875C10.7298 16.7521 16.7521 10.7298 24.1875 10.7298C31.6229 10.7298 37.6452 16.7521 37.6452 24.1875C37.6452 31.6229 31.6229 37.6452 24.1875 37.6452C16.7521 37.6452 10.7298 31.6229 10.7298 24.1875Z" fill="white"/>
</svg>
