<svg width="48" height="48" viewBox="0 0 48 48" fill="none" xmlns="http://www.w3.org/2000/svg">
<path d="M18.9107 26.1562H16.2321C15.7902 26.1562 15.4286 25.7924 15.4286 25.3477V22.6523C15.4286 22.2076 15.7902 21.8438 16.2321 21.8438H18.9107C19.3527 21.8438 19.7143 22.2076 19.7143 22.6523V25.3477C19.7143 25.7924 19.3527 26.1562 18.9107 26.1562ZM26.1429 25.3477V22.6523C26.1429 22.2076 25.7812 21.8438 25.3393 21.8438H22.6607C22.2187 21.8438 21.8571 22.2076 21.8571 22.6523V25.3477C21.8571 25.7924 22.2187 26.1562 22.6607 26.1562H25.3393C25.7812 26.1562 26.1429 25.7924 26.1429 25.3477ZM32.5714 25.3477V22.6523C32.5714 22.2076 32.2098 21.8438 31.7679 21.8438H29.0893C28.6473 21.8438 28.2857 22.2076 28.2857 22.6523V25.3477C28.2857 25.7924 28.6473 26.1562 29.0893 26.1562H31.7679C32.2098 26.1562 32.5714 25.7924 32.5714 25.3477ZM26.1429 31.8164V29.1211C26.1429 28.6764 25.7812 28.3125 25.3393 28.3125H22.6607C22.2187 28.3125 21.8571 28.6764 21.8571 29.1211V31.8164C21.8571 32.2611 22.2187 32.625 22.6607 32.625H25.3393C25.7812 32.625 26.1429 32.2611 26.1429 31.8164ZM19.7143 31.8164V29.1211C19.7143 28.6764 19.3527 28.3125 18.9107 28.3125H16.2321C15.7902 28.3125 15.4286 28.6764 15.4286 29.1211V31.8164C15.4286 32.2611 15.7902 32.625 16.2321 32.625H18.9107C19.3527 32.625 19.7143 32.2611 19.7143 31.8164ZM32.5714 31.8164V29.1211C32.5714 28.6764 32.2098 28.3125 31.7679 28.3125H29.0893C28.6473 28.3125 28.2857 28.6764 28.2857 29.1211V31.8164C28.2857 32.2611 28.6473 32.625 29.0893 32.625H31.7679C32.2098 32.625 32.5714 32.2611 32.5714 31.8164ZM39 14.2969V38.0156C39 39.8013 37.5603 41.25 35.7857 41.25H12.2143C10.4397 41.25 9 39.8013 9 38.0156V14.2969C9 12.5112 10.4397 11.0625 12.2143 11.0625H15.4286V7.55859C15.4286 7.11387 15.7902 6.75 16.2321 6.75H18.9107C19.3527 6.75 19.7143 7.11387 19.7143 7.55859V11.0625H28.2857V7.55859C28.2857 7.11387 28.6473 6.75 29.0893 6.75H31.7679C32.2098 6.75 32.5714 7.11387 32.5714 7.55859V11.0625H35.7857C37.5603 11.0625 39 12.5112 39 14.2969ZM35.7857 37.6113V17.5312H12.2143V37.6113C12.2143 37.8337 12.3951 38.0156 12.6161 38.0156H35.3839C35.6049 38.0156 35.7857 37.8337 35.7857 37.6113Z" fill="white"/>
</svg>
