<svg width="48" height="48" viewBox="0 0 48 48" fill="none" xmlns="http://www.w3.org/2000/svg">
<path d="M41.8906 11.25H12.3854C10.9867 11.25 9.79412 12.1514 9.35121 13.4062H6.48437C5.59553 13.4062 4.875 14.1303 4.875 15.0234V33.3516C4.875 35.4356 6.55626 37.125 8.63021 37.125H41.8906C42.7795 37.125 43.5 36.401 43.5 35.5078V12.8672C43.5 11.974 42.7795 11.25 41.8906 11.25ZM8.09375 33.3516V16.6406H9.16667V33.3516C9.16667 33.6488 8.926 33.8906 8.63021 33.8906C8.33442 33.8906 8.09375 33.6488 8.09375 33.3516ZM40.2812 33.8906H12.3467C12.3717 33.7145 12.3854 33.5346 12.3854 33.3516V14.4844H40.2812V33.8906ZM16.4089 25.8047H25.5286C25.973 25.8047 26.3333 25.4426 26.3333 24.9961V18.5273C26.3333 18.0808 25.973 17.7188 25.5286 17.7188H16.4089C15.9645 17.7188 15.6042 18.0808 15.6042 18.5273V24.9961C15.6042 25.4426 15.9645 25.8047 16.4089 25.8047ZM18.2865 20.4141H23.651V23.1094H18.2865V20.4141ZM15.6042 29.8477V28.2305C15.6042 27.7839 15.9645 27.4219 16.4089 27.4219H25.5286C25.973 27.4219 26.3333 27.7839 26.3333 28.2305V29.8477C26.3333 30.2942 25.973 30.6562 25.5286 30.6562H16.4089C15.9645 30.6562 15.6042 30.2942 15.6042 29.8477ZM28.4792 29.8477V28.2305C28.4792 27.7839 28.8395 27.4219 29.2839 27.4219H36.2578C36.7022 27.4219 37.0625 27.7839 37.0625 28.2305V29.8477C37.0625 30.2942 36.7022 30.6562 36.2578 30.6562H29.2839C28.8395 30.6562 28.4792 30.2942 28.4792 29.8477ZM28.4792 20.1445V18.5273C28.4792 18.0808 28.8395 17.7188 29.2839 17.7188H36.2578C36.7022 17.7188 37.0625 18.0808 37.0625 18.5273V20.1445C37.0625 20.5911 36.7022 20.9531 36.2578 20.9531H29.2839C28.8395 20.9531 28.4792 20.5911 28.4792 20.1445ZM28.4792 24.9961V23.3789C28.4792 22.9324 28.8395 22.5703 29.2839 22.5703H36.2578C36.7022 22.5703 37.0625 22.9324 37.0625 23.3789V24.9961C37.0625 25.4426 36.7022 25.8047 36.2578 25.8047H29.2839C28.8395 25.8047 28.4792 25.4426 28.4792 24.9961Z" fill="white"/>
</svg>
