<svg width="48" height="48" viewBox="0 0 48 48" fill="none" xmlns="http://www.w3.org/2000/svg">
<path d="M37.6758 11.25H9.94922C8.18232 11.25 6.75 12.6771 6.75 14.4375V33.5625C6.75 35.3229 8.18232 36.75 9.94922 36.75H37.6758C39.4427 36.75 40.875 35.3229 40.875 33.5625V14.4375C40.875 12.6771 39.4427 11.25 37.6758 11.25ZM37.2759 33.5625H10.3491C10.2431 33.5625 10.1413 33.5205 10.0663 33.4458C9.99135 33.3711 9.94922 33.2697 9.94922 33.1641V14.8359C9.94922 14.7303 9.99135 14.6289 10.0663 14.5542C10.1413 14.4795 10.2431 14.4375 10.3491 14.4375H37.2759C37.3819 14.4375 37.4837 14.4795 37.5587 14.5542C37.6336 14.6289 37.6758 14.7303 37.6758 14.8359V33.1641C37.6758 33.2697 37.6336 33.3711 37.5587 33.4458C37.4837 33.5205 37.3819 33.5625 37.2759 33.5625V33.5625ZM15.2812 17.0938C13.8089 17.0938 12.6152 18.283 12.6152 19.75C12.6152 21.217 13.8089 22.4062 15.2812 22.4062C16.7536 22.4062 17.9473 21.217 17.9473 19.75C17.9473 18.283 16.7536 17.0938 15.2812 17.0938ZM13.1484 30.375H34.4766V25.0625L28.6437 19.251C28.3313 18.9398 27.8249 18.9398 27.5125 19.251L19.5469 27.1875L16.9132 24.5635C16.6009 24.2523 16.0945 24.2523 15.7821 24.5635L13.1484 27.1875V30.375Z" fill="white"/>
</svg>
