<svg width="48" height="48" viewBox="0 0 48 48" fill="none" xmlns="http://www.w3.org/2000/svg">
<path d="M35.615 6.75H12.01C11.7418 6.75 11.4869 6.88476 11.3394 7.11385L4.63346 17.0321C4.43898 17.3286 4.4591 17.7194 4.6804 17.9889L23.1888 40.9518C23.5107 41.3494 24.1143 41.3494 24.4362 40.9518L42.9446 17.9889C43.1659 17.7126 43.186 17.3286 42.9915 17.0321L36.2923 7.11385C36.1381 6.88476 35.8899 6.75 35.615 6.75ZM34.3207 9.98422L38.5656 16.4527H33.9787L30.5118 9.98422H34.3207V9.98422ZM20.768 9.98422H26.8503L30.3173 16.4527H17.3077L20.768 9.98422ZM13.3043 9.98422H17.1132L13.6463 16.4527H9.05939L13.3043 9.98422ZM10.4207 19.6869H13.8676L18.4477 30.4676L10.4207 19.6869V19.6869ZM17.3211 19.6869H30.3039L23.8125 36.0803L17.3211 19.6869V19.6869ZM29.1773 30.4676L33.7507 19.6869H37.1976L29.1773 30.4676Z" fill="white"/>
</svg>
